<svg width="111" height="22" viewBox="0 0 111 22" fill="none" xmlns="http://www.w3.org/2000/svg">
<path d="M6.48312 8.99525L4.59662 10.8818C3.82297 11.6554 3.38834 12.7047 3.38834 13.7988C3.38834 14.8929 3.82297 15.9422 4.59662 16.7159C5.37028 17.4895 6.41957 17.9242 7.51369 17.9242C8.6078 17.9242 9.65709 17.4895 10.4307 16.7159L12.9442 14.201C13.4108 13.7344 13.7586 13.1627 13.9584 12.5339C14.1583 11.9051 14.2044 11.2375 14.0929 10.5871C13.9813 9.93681 13.7154 9.32273 13.3175 8.79643C12.9195 8.27014 12.4011 7.84699 11.8057 7.5625L11 8.36825C10.9182 8.4502 10.8471 8.54213 10.7882 8.64187C11.2482 8.77411 11.6657 9.0241 11.9995 9.36713C12.3332 9.71016 12.5717 10.1344 12.6912 10.5978C12.8108 11.0612 12.8074 11.5478 12.6813 12.0095C12.5551 12.4712 12.3107 12.892 11.9721 13.2302L9.46 15.7437C8.94399 16.2598 8.24412 16.5497 7.51437 16.5497C6.78462 16.5497 6.08476 16.2598 5.56875 15.7437C5.05274 15.2277 4.76284 14.5279 4.76284 13.7981C4.76284 13.0684 5.05274 12.3685 5.56875 11.8525L6.65912 10.7635C6.50528 10.187 6.44584 9.58938 6.48312 8.99387V8.99525Z" fill="#B85900"/>
<path d="M9.05576 6.42406C8.58923 6.89065 8.24143 7.46236 8.04157 8.09118C7.84171 8.72 7.7956 9.3876 7.90713 10.0379C8.01867 10.6882 8.28457 11.3023 8.68254 11.8286C9.0805 12.3549 9.59891 12.7781 10.1943 13.0626L11.2599 11.9956C10.7937 11.8705 10.3686 11.625 10.0274 11.2836C9.68615 10.9422 9.44077 10.517 9.31592 10.0508C9.19107 9.58454 9.19113 9.09364 9.3161 8.62742C9.44108 8.16121 9.68656 7.73609 10.0279 7.39481L12.54 4.88131C13.056 4.3653 13.7559 4.0754 14.4856 4.0754C15.2154 4.0754 15.9152 4.3653 16.4313 4.88131C16.9473 5.39732 17.2372 6.09718 17.2372 6.82693C17.2372 7.55668 16.9473 8.25655 16.4313 8.77256L15.3409 9.86156C15.4949 10.4391 15.554 11.0372 15.5169 11.6312L17.4034 9.74468C18.177 8.97103 18.6117 7.92173 18.6117 6.82762C18.6117 5.73351 18.177 4.68421 17.4034 3.91056C16.6297 3.1369 15.5804 2.70227 14.4863 2.70227C13.3922 2.70227 12.3429 3.1369 11.5693 3.91056L9.05576 6.42406Z" fill="#B85900"/>
<path d="M23.1719 14V5.43359H24.168V13.1094H27.9707V14H23.1719ZM30.2676 7.57812V14H29.2949V7.57812H30.2676ZM29.793 5.17578C29.9531 5.17578 30.0898 5.22852 30.2031 5.33398C30.3203 5.43555 30.3789 5.5957 30.3789 5.81445C30.3789 6.0293 30.3203 6.18945 30.2031 6.29492C30.0898 6.40039 29.9531 6.45312 29.793 6.45312C29.625 6.45312 29.4844 6.40039 29.3711 6.29492C29.2617 6.18945 29.207 6.0293 29.207 5.81445C29.207 5.5957 29.2617 5.43555 29.3711 5.33398C29.4844 5.22852 29.625 5.17578 29.793 5.17578ZM35.3711 7.46094C36.1328 7.46094 36.709 7.64844 37.0996 8.02344C37.4902 8.39453 37.6855 8.99219 37.6855 9.81641V14H36.7246V9.88086C36.7246 9.3457 36.6016 8.94531 36.3555 8.67969C36.1133 8.41406 35.7402 8.28125 35.2363 8.28125C34.5254 8.28125 34.0254 8.48242 33.7363 8.88477C33.4473 9.28711 33.3027 9.87109 33.3027 10.6367V14H32.3301V7.57812H33.1152L33.2617 8.50391H33.3145C33.4512 8.27734 33.625 8.08789 33.8359 7.93555C34.0469 7.7793 34.2832 7.66211 34.5449 7.58398C34.8066 7.50195 35.082 7.46094 35.3711 7.46094ZM40.6562 4.88281V9.61719C40.6562 9.77344 40.6504 9.96484 40.6387 10.1914C40.627 10.4141 40.6172 10.6113 40.6094 10.7832H40.6504C40.7324 10.6816 40.8516 10.5312 41.0078 10.332C41.168 10.1328 41.3027 9.97266 41.4121 9.85156L43.5449 7.57812H44.6875L42.1035 10.3203L44.875 14H43.7031L41.4355 10.959L40.6562 11.6738V14H39.6895V4.88281H40.6562ZM56.0605 9.63477C56.0605 10.5996 55.8848 11.4062 55.5332 12.0547C55.1816 12.6992 54.6719 13.1855 54.0039 13.5137C53.3398 13.8379 52.5332 14 51.584 14H49.2578V5.43359H51.8418C52.7129 5.43359 53.4629 5.59375 54.0918 5.91406C54.7207 6.23047 55.2051 6.70117 55.5449 7.32617C55.8887 7.94727 56.0605 8.7168 56.0605 9.63477ZM55.0117 9.66992C55.0117 8.90039 54.8828 8.26562 54.625 7.76562C54.3711 7.26562 53.9961 6.89453 53.5 6.65234C53.0078 6.40625 52.4043 6.2832 51.6895 6.2832H50.2539V13.1445H51.4668C52.6465 13.1445 53.5312 12.8535 54.1211 12.2715C54.7148 11.6895 55.0117 10.8223 55.0117 9.66992ZM63.3555 10.7773C63.3555 11.3047 63.2871 11.7754 63.1504 12.1895C63.0137 12.6035 62.8164 12.9531 62.5586 13.2383C62.3008 13.5234 61.9883 13.7422 61.6211 13.8945C61.2578 14.043 60.8457 14.1172 60.3848 14.1172C59.9551 14.1172 59.5605 14.043 59.2012 13.8945C58.8457 13.7422 58.5371 13.5234 58.2754 13.2383C58.0176 12.9531 57.8164 12.6035 57.6719 12.1895C57.5312 11.7754 57.4609 11.3047 57.4609 10.7773C57.4609 10.0742 57.5801 9.47656 57.8184 8.98438C58.0566 8.48828 58.3965 8.11133 58.8379 7.85352C59.2832 7.5918 59.8125 7.46094 60.4258 7.46094C61.0117 7.46094 61.5234 7.5918 61.9609 7.85352C62.4023 8.11523 62.7441 8.49414 62.9863 8.99023C63.2324 9.48242 63.3555 10.0781 63.3555 10.7773ZM58.4688 10.7773C58.4688 11.293 58.5371 11.7402 58.6738 12.1191C58.8105 12.498 59.0215 12.791 59.3066 12.998C59.5918 13.2051 59.959 13.3086 60.4082 13.3086C60.8535 13.3086 61.2188 13.2051 61.5039 12.998C61.793 12.791 62.0059 12.498 62.1426 12.1191C62.2793 11.7402 62.3477 11.293 62.3477 10.7773C62.3477 10.2656 62.2793 9.82422 62.1426 9.45312C62.0059 9.07812 61.7949 8.78906 61.5098 8.58594C61.2246 8.38281 60.8555 8.28125 60.4023 8.28125C59.7344 8.28125 59.2441 8.50195 58.9316 8.94336C58.623 9.38477 58.4688 9.99609 58.4688 10.7773ZM70.2637 13.9883L69.1211 10.25C69.0703 10.0898 69.0215 9.93359 68.9746 9.78125C68.9316 9.625 68.8906 9.47656 68.8516 9.33594C68.8164 9.19141 68.7832 9.05859 68.752 8.9375C68.7246 8.8125 68.7012 8.70508 68.6816 8.61523H68.6406C68.625 8.70508 68.6035 8.8125 68.5762 8.9375C68.5488 9.05859 68.5156 9.19141 68.4766 9.33594C68.4414 9.48047 68.4023 9.63281 68.3594 9.79297C68.3164 9.94922 68.2676 10.1074 68.2129 10.2676L67.0176 13.9883H65.9219L64.1523 7.56641H65.1602L66.0859 11.1113C66.1484 11.3457 66.207 11.5781 66.2617 11.8086C66.3203 12.0352 66.3691 12.25 66.4082 12.4531C66.4512 12.6523 66.4824 12.8262 66.502 12.9746H66.5488C66.5723 12.877 66.5977 12.7598 66.625 12.623C66.6562 12.4863 66.6895 12.3418 66.7246 12.1895C66.7637 12.0332 66.8047 11.8789 66.8477 11.7266C66.8906 11.5703 66.9336 11.4238 66.9766 11.2871L68.1602 7.56641H69.209L70.3516 11.2812C70.4102 11.4688 70.4668 11.6641 70.5215 11.8672C70.5801 12.0703 70.6328 12.2676 70.6797 12.459C70.7266 12.6465 70.7598 12.8145 70.7793 12.9629H70.8262C70.8418 12.8301 70.8711 12.666 70.9141 12.4707C70.957 12.2754 71.0059 12.0605 71.0605 11.8262C71.1191 11.5918 71.1797 11.3535 71.2422 11.1113L72.1797 7.56641H73.1699L71.3945 13.9883H70.2637ZM77.3828 7.46094C78.1445 7.46094 78.7207 7.64844 79.1113 8.02344C79.502 8.39453 79.6973 8.99219 79.6973 9.81641V14H78.7363V9.88086C78.7363 9.3457 78.6133 8.94531 78.3672 8.67969C78.125 8.41406 77.752 8.28125 77.248 8.28125C76.5371 8.28125 76.0371 8.48242 75.748 8.88477C75.459 9.28711 75.3145 9.87109 75.3145 10.6367V14H74.3418V7.57812H75.127L75.2734 8.50391H75.3262C75.4629 8.27734 75.6367 8.08789 75.8477 7.93555C76.0586 7.7793 76.2949 7.66211 76.5566 7.58398C76.8184 7.50195 77.0938 7.46094 77.3828 7.46094ZM82.6797 14H81.7012V4.88281H82.6797V14ZM90.2734 10.7773C90.2734 11.3047 90.2051 11.7754 90.0684 12.1895C89.9316 12.6035 89.7344 12.9531 89.4766 13.2383C89.2188 13.5234 88.9062 13.7422 88.5391 13.8945C88.1758 14.043 87.7637 14.1172 87.3027 14.1172C86.873 14.1172 86.4785 14.043 86.1191 13.8945C85.7637 13.7422 85.4551 13.5234 85.1934 13.2383C84.9355 12.9531 84.7344 12.6035 84.5898 12.1895C84.4492 11.7754 84.3789 11.3047 84.3789 10.7773C84.3789 10.0742 84.498 9.47656 84.7363 8.98438C84.9746 8.48828 85.3145 8.11133 85.7559 7.85352C86.2012 7.5918 86.7305 7.46094 87.3438 7.46094C87.9297 7.46094 88.4414 7.5918 88.8789 7.85352C89.3203 8.11523 89.6621 8.49414 89.9043 8.99023C90.1504 9.48242 90.2734 10.0781 90.2734 10.7773ZM85.3867 10.7773C85.3867 11.293 85.4551 11.7402 85.5918 12.1191C85.7285 12.498 85.9395 12.791 86.2246 12.998C86.5098 13.2051 86.877 13.3086 87.3262 13.3086C87.7715 13.3086 88.1367 13.2051 88.4219 12.998C88.7109 12.791 88.9238 12.498 89.0605 12.1191C89.1973 11.7402 89.2656 11.293 89.2656 10.7773C89.2656 10.2656 89.1973 9.82422 89.0605 9.45312C88.9238 9.07812 88.7129 8.78906 88.4277 8.58594C88.1426 8.38281 87.7734 8.28125 87.3203 8.28125C86.6523 8.28125 86.1621 8.50195 85.8496 8.94336C85.541 9.38477 85.3867 9.99609 85.3867 10.7773ZM94.3574 7.47266C95.123 7.47266 95.6914 7.64453 96.0625 7.98828C96.4336 8.33203 96.6191 8.88086 96.6191 9.63477V14H95.9102L95.7227 13.0508H95.6758C95.4961 13.2852 95.3086 13.4824 95.1133 13.6426C94.918 13.7988 94.6914 13.918 94.4336 14C94.1797 14.0781 93.8672 14.1172 93.4961 14.1172C93.1055 14.1172 92.7578 14.0488 92.4531 13.9121C92.1523 13.7754 91.9141 13.5684 91.7383 13.291C91.5664 13.0137 91.4805 12.6621 91.4805 12.2363C91.4805 11.5957 91.7344 11.1035 92.2422 10.7598C92.75 10.416 93.5234 10.2285 94.5625 10.1973L95.6699 10.1504V9.75781C95.6699 9.20312 95.5508 8.81445 95.3125 8.5918C95.0742 8.36914 94.7383 8.25781 94.3047 8.25781C93.9688 8.25781 93.6484 8.30664 93.3438 8.4043C93.0391 8.50195 92.75 8.61719 92.4766 8.75L92.1777 8.01172C92.4668 7.86328 92.7988 7.73633 93.1738 7.63086C93.5488 7.52539 93.9434 7.47266 94.3574 7.47266ZM95.6582 10.8359L94.6797 10.877C93.8789 10.9082 93.3145 11.0391 92.9863 11.2695C92.6582 11.5 92.4941 11.8262 92.4941 12.248C92.4941 12.6152 92.6055 12.8867 92.8281 13.0625C93.0508 13.2383 93.3457 13.3262 93.7129 13.3262C94.2832 13.3262 94.75 13.168 95.1133 12.8516C95.4766 12.5352 95.6582 12.0605 95.6582 11.4277V10.8359ZM100.908 14.1172C100.096 14.1172 99.4512 13.8398 98.9746 13.2852C98.502 12.7305 98.2656 11.9062 98.2656 10.8125C98.2656 9.70703 98.5078 8.87305 98.9922 8.31055C99.4766 7.74414 100.121 7.46094 100.926 7.46094C101.266 7.46094 101.562 7.50586 101.816 7.5957C102.07 7.68555 102.289 7.80664 102.473 7.95898C102.656 8.10742 102.811 8.27734 102.936 8.46875H103.006C102.99 8.34766 102.975 8.18164 102.959 7.9707C102.943 7.75977 102.936 7.58789 102.936 7.45508V4.88281H103.908V14H103.123L102.977 13.0859H102.936C102.814 13.2773 102.66 13.4512 102.473 13.6074C102.289 13.7637 102.068 13.8887 101.811 13.9824C101.557 14.0723 101.256 14.1172 100.908 14.1172ZM101.061 13.3086C101.748 13.3086 102.234 13.1133 102.52 12.7227C102.805 12.332 102.947 11.752 102.947 10.9824V10.8066C102.947 9.99023 102.811 9.36328 102.537 8.92578C102.268 8.48828 101.775 8.26953 101.061 8.26953C100.463 8.26953 100.016 8.5 99.7188 8.96094C99.4219 9.41797 99.2734 10.043 99.2734 10.8359C99.2734 11.625 99.4199 12.2344 99.7129 12.6641C100.01 13.0938 100.459 13.3086 101.061 13.3086Z" fill="#B85900"/>
</svg>
