<svg width="77" height="19" viewBox="0 0 77 19" fill="none" xmlns="http://www.w3.org/2000/svg">
<path d="M6.63177 8.50332C6.44948 7.97207 6.45312 6.94609 6.55885 6.94609C6.8651 6.94609 6.83594 8.17129 6.63177 8.50332ZM6.56979 10.0705C6.28906 10.7412 5.93906 11.5082 5.53437 12.1523C6.20156 11.9199 6.95625 11.5813 7.8276 11.4252C7.36458 11.1064 6.91979 10.6482 6.56979 10.0705ZM3.13906 14.2143C3.13906 14.2408 3.62031 14.035 4.41146 12.8795C4.16719 13.0887 3.35052 13.693 3.13906 14.2143ZM9.04167 5.3125H14V16.2031C14 16.6447 13.6099 17 13.125 17H0.875C0.390104 17 0 16.6447 0 16.2031V0.796875C0 0.355273 0.390104 0 0.875 0H8.16667V4.51562C8.16667 4.95391 8.56042 5.3125 9.04167 5.3125ZM8.75 11.0168C8.02083 10.6117 7.53594 10.0539 7.19323 9.23047C7.35729 8.61621 7.61615 7.6832 7.41927 7.09883C7.24792 6.12266 5.87344 6.21895 5.67656 6.87305C5.49427 7.48066 5.66198 8.3373 5.97187 9.42969C5.54896 10.3461 4.92552 11.5746 4.48437 12.2785C4.48073 12.2785 4.48073 12.2818 4.47708 12.2818C3.48906 12.7434 1.79375 13.7594 2.4901 14.5396C2.69427 14.7687 3.07344 14.8717 3.27396 14.8717C3.92656 14.8717 4.57552 14.274 5.50156 12.8197C6.44219 12.5375 7.47396 12.1855 8.38177 12.0494C9.17292 12.4412 10.099 12.6969 10.7151 12.6969C11.7797 12.6969 11.8526 11.6344 11.4333 11.2559C10.9266 10.8043 9.45365 10.9338 8.75 11.0168V11.0168ZM13.7448 3.48633L10.1719 0.232422C10.0078 0.0830078 9.78542 0 9.55208 0H9.33333V4.25H14V4.04746C14 3.83828 13.9089 3.63574 13.7448 3.48633ZM11.0432 11.9631C11.1927 11.8734 10.9521 11.568 9.48281 11.6643C10.8354 12.1889 11.0432 11.9631 11.0432 11.9631Z" fill="#B85900"/>
<path d="M25.1543 6.43359L22.0781 15H21.0762L18 6.43359H19.043L21.0469 12.0762C21.1289 12.3027 21.2012 12.5195 21.2637 12.7266C21.3301 12.9336 21.3887 13.1328 21.4395 13.3242C21.4902 13.5156 21.5352 13.7012 21.5742 13.8809C21.6133 13.7012 21.6582 13.5156 21.709 13.3242C21.7598 13.1289 21.8184 12.9277 21.8848 12.7207C21.9512 12.5098 22.0254 12.2891 22.1074 12.0586L24.0996 6.43359H25.1543ZM27.1582 8.57812V15H26.1855V8.57812H27.1582ZM26.6836 6.17578C26.8438 6.17578 26.9805 6.22852 27.0938 6.33398C27.2109 6.43555 27.2695 6.5957 27.2695 6.81445C27.2695 7.0293 27.2109 7.18945 27.0938 7.29492C26.9805 7.40039 26.8438 7.45312 26.6836 7.45312C26.5156 7.45312 26.375 7.40039 26.2617 7.29492C26.1523 7.18945 26.0977 7.0293 26.0977 6.81445C26.0977 6.5957 26.1523 6.43555 26.2617 6.33398C26.375 6.22852 26.5156 6.17578 26.6836 6.17578ZM31.6934 8.46094C32.2402 8.46094 32.709 8.58203 33.0996 8.82422C33.4902 9.06641 33.7891 9.40625 33.9961 9.84375C34.2031 10.2773 34.3066 10.7852 34.3066 11.3672V11.9707H29.8711C29.8828 12.7246 30.0703 13.2988 30.4336 13.6934C30.7969 14.0879 31.3086 14.2852 31.9688 14.2852C32.375 14.2852 32.7344 14.248 33.0469 14.1738C33.3594 14.0996 33.6836 13.9902 34.0195 13.8457V14.7012C33.6953 14.8457 33.373 14.9512 33.0527 15.0176C32.7363 15.084 32.3613 15.1172 31.9277 15.1172C31.3105 15.1172 30.7715 14.9922 30.3105 14.7422C29.8535 14.4883 29.498 14.1172 29.2441 13.6289C28.9902 13.1406 28.8633 12.543 28.8633 11.8359C28.8633 11.1445 28.9785 10.5469 29.209 10.043C29.4434 9.53516 29.7715 9.14453 30.1934 8.87109C30.6191 8.59766 31.1191 8.46094 31.6934 8.46094ZM31.6816 9.25781C31.1621 9.25781 30.748 9.42773 30.4395 9.76758C30.1309 10.1074 29.9473 10.582 29.8887 11.1914H33.2871C33.2832 10.8086 33.2227 10.4727 33.1055 10.1836C32.9922 9.89062 32.8184 9.66406 32.584 9.50391C32.3496 9.33984 32.0488 9.25781 31.6816 9.25781ZM41.1855 14.9883L40.043 11.25C39.9922 11.0898 39.9434 10.9336 39.8965 10.7812C39.8535 10.625 39.8125 10.4766 39.7734 10.3359C39.7383 10.1914 39.7051 10.0586 39.6738 9.9375C39.6465 9.8125 39.623 9.70508 39.6035 9.61523H39.5625C39.5469 9.70508 39.5254 9.8125 39.498 9.9375C39.4707 10.0586 39.4375 10.1914 39.3984 10.3359C39.3633 10.4805 39.3242 10.6328 39.2812 10.793C39.2383 10.9492 39.1895 11.1074 39.1348 11.2676L37.9395 14.9883H36.8438L35.0742 8.56641H36.082L37.0078 12.1113C37.0703 12.3457 37.1289 12.5781 37.1836 12.8086C37.2422 13.0352 37.291 13.25 37.3301 13.4531C37.373 13.6523 37.4043 13.8262 37.4238 13.9746H37.4707C37.4941 13.877 37.5195 13.7598 37.5469 13.623C37.5781 13.4863 37.6113 13.3418 37.6465 13.1895C37.6855 13.0332 37.7266 12.8789 37.7695 12.7266C37.8125 12.5703 37.8555 12.4238 37.8984 12.2871L39.082 8.56641H40.1309L41.2734 12.2812C41.332 12.4688 41.3887 12.6641 41.4434 12.8672C41.502 13.0703 41.5547 13.2676 41.6016 13.459C41.6484 13.6465 41.6816 13.8145 41.7012 13.9629H41.748C41.7637 13.8301 41.793 13.666 41.8359 13.4707C41.8789 13.2754 41.9277 13.0605 41.9824 12.8262C42.041 12.5918 42.1016 12.3535 42.1641 12.1113L43.1016 8.56641H44.0918L42.3164 14.9883H41.1855ZM50.7656 6.43359C51.8711 6.43359 52.6777 6.65039 53.1855 7.08398C53.6973 7.51367 53.9531 8.13086 53.9531 8.93555C53.9531 9.29883 53.8926 9.64453 53.7715 9.97266C53.6543 10.2969 53.4629 10.584 53.1973 10.834C52.9316 11.0801 52.582 11.2754 52.1484 11.4199C51.7188 11.5605 51.1914 11.6309 50.5664 11.6309H49.5234V15H48.5273V6.43359H50.7656ZM50.6719 7.2832H49.5234V10.7754H50.4551C51.002 10.7754 51.457 10.7168 51.8203 10.5996C52.1875 10.4824 52.4629 10.293 52.6465 10.0312C52.8301 9.76562 52.9219 9.41406 52.9219 8.97656C52.9219 8.40625 52.7402 7.98242 52.377 7.70508C52.0137 7.42383 51.4453 7.2832 50.6719 7.2832ZM62.5488 10.6348C62.5488 11.5996 62.373 12.4062 62.0215 13.0547C61.6699 13.6992 61.1602 14.1855 60.4922 14.5137C59.8281 14.8379 59.0215 15 58.0723 15H55.7461V6.43359H58.3301C59.2012 6.43359 59.9512 6.59375 60.5801 6.91406C61.209 7.23047 61.6934 7.70117 62.0332 8.32617C62.377 8.94727 62.5488 9.7168 62.5488 10.6348ZM61.5 10.6699C61.5 9.90039 61.3711 9.26562 61.1133 8.76562C60.8594 8.26562 60.4844 7.89453 59.9883 7.65234C59.4961 7.40625 58.8926 7.2832 58.1777 7.2832H56.7422V14.1445H57.9551C59.1348 14.1445 60.0195 13.8535 60.6094 13.2715C61.2031 12.6895 61.5 11.8223 61.5 10.6699ZM65.4492 15H64.4531V6.43359H69.2227V7.3125H65.4492V10.4531H68.9941V11.3262H65.4492V15Z" fill="#B85900"/>
</svg>
